HIERARCHY
ROOT joint_Root
{
	OFFSET 0.0 0.0 0.0
	CHANNELS 6 Xposition Yposition Zposition Zrotation Xrotation Yrotation 
	JOINT Hips
	{
		OFFSET -17.1583 93.1646 452.98
		CHANNELS 6 Xposition Yposition Zposition Zrotation Xrotation Yrotation 
		JOINT Spine
		{
			OFFSET 15.7357 0.0 0.0
			CHANNELS 6 Xposition Yposition Zposition Zrotation Xrotation Yrotation 
			JOINT Chest
			{
				OFFSET 8.98455 -0.406207 0.0
				CHANNELS 6 Xposition Yposition Zposition Zrotation Xrotation Yrotation 
				JOINT Neck
				{
					OFFSET 16.3773 0.0 0.0
					CHANNELS 6 Xposition Yposition Zposition Zrotation Xrotation Yrotation 
					JOINT Head
					{
						OFFSET 6.45672 0.0 0.0
						CHANNELS 6 Xposition Yposition Zposition Zrotation Xrotation Yrotation 
						End Site
						{
							OFFSET 0.0 0.0 0.0
						}
					}
				}
				JOINT Shoulder_L
				{
					OFFSET 12.9942 -0.242716 4.98039
					CHANNELS 6 Xposition Yposition Zposition Zrotation Xrotation Yrotation 
					JOINT UpperArm_L
					{
						OFFSET 5.34809 0.0 0.0
						CHANNELS 6 Xposition Yposition Zposition Zrotation Xrotation Yrotation 
						JOINT LowerArm_L
						{
							OFFSET 24.3286 1.87007e-05 0.0
							CHANNELS 6 Xposition Yposition Zposition Zrotation Xrotation Yrotation 
							JOINT Hand_L
							{
								OFFSET 22.2916 0.0 0.0
								CHANNELS 6 Xposition Yposition Zposition Zrotation Xrotation Yrotation 
								End Site
								{
									OFFSET 0.0 0.0 0.0
								}
							}
						}
					}
				}
				JOINT Shoulder_R
				{
					OFFSET 12.9945 -0.242716 -4.98039
					CHANNELS 6 Xposition Yposition Zposition Zrotation Xrotation Yrotation 
					JOINT UpperArm_R
					{
						OFFSET -5.34813 0.0 0.0
						CHANNELS 6 Xposition Yposition Zposition Zrotation Xrotation Yrotation 
						JOINT LowerArm_R
						{
							OFFSET -24.3289 0.000322201 0.0
							CHANNELS 6 Xposition Yposition Zposition Zrotation Xrotation Yrotation 
							JOINT Hand_R
							{
								OFFSET -22.2915 -0.000108084 0.0
								CHANNELS 6 Xposition Yposition Zposition Zrotation Xrotation Yrotation 
								End Site
								{
									OFFSET 0.0 0.0 0.0
								}
							}
						}
					}
				}
			}
		}
		JOINT UpperLeg_L
		{
			OFFSET -2.19248 -6.46944 0.0
			CHANNELS 6 Xposition Yposition Zposition Zrotation Xrotation Yrotation 
			JOINT LowerLeg_L
			{
				OFFSET 39.0811 0.0 -1.23785e-05
				CHANNELS 6 Xposition Yposition Zposition Zrotation Xrotation Yrotation 
				JOINT Foot_L
				{
					OFFSET 40.9854 0.0 -1.26872e-05
					CHANNELS 6 Xposition Yposition Zposition Zrotation Xrotation Yrotation 
					JOINT Toes_L
					{
						OFFSET 11.7543 0.0 0.0
						CHANNELS 6 Xposition Yposition Zposition Zrotation Xrotation Yrotation 
						End Site
						{
							OFFSET 0.0 0.0 0.0
						}
					}
				}
			}
		}
		JOINT UpperLeg_R
		{
			OFFSET -2.19251 6.46944 0.0
			CHANNELS 6 Xposition Yposition Zposition Zrotation Xrotation Yrotation 
			JOINT LowerLeg_R
			{
				OFFSET -39.0811 -0.00228153 -0.0401928
				CHANNELS 6 Xposition Yposition Zposition Zrotation Xrotation Yrotation 
				JOINT Foot_R
				{
					OFFSET -40.9854 0.0 0.0
					CHANNELS 6 Xposition Yposition Zposition Zrotation Xrotation Yrotation 
					JOINT Toes_R
					{
						OFFSET -11.7543 0.0 0.0
						CHANNELS 6 Xposition Yposition Zposition Zrotation Xrotation Yrotation 
						End Site
						{
							OFFSET 0.0 0.0 0.0
						}
					}
				}
			}
		}
	}
}
MOTION
Frames:	5
Frame Time:	0.0333333
0.000000 0.000000 0.000000 0.000000 0.000000 -0.000000 -1.119880 92.697800 -1.538320 86.102900 1.010810 1.628020 15.735700 0.000005 -0.000001 84.324300 87.853500 -82.024400 8.984550 -0.406207 -0.000000 -3.476970 -0.649853 4.581310 16.377300 -0.000001 -0.000001 4.447630 3.508960 0.089011 6.456720 -0.000001 -0.000000 3.434620 4.697170 -6.093690 12.994200 -0.242716 4.980390 -92.918100 8.811570 -71.594500 5.348090 -0.000007 -0.000001 -72.797800 27.475900 1.831520 24.328600 0.000019 0.000005 13.165000 27.917500 -26.545700 22.291600 -0.000001 0.000005 -4.537800 5.052570 6.180510 12.994500 -0.242716 -4.980390 88.948200 3.489270 -73.214000 -5.348130 -0.000001 -0.000004 -73.310200 24.459000 0.582535 -24.328900 0.000322 -0.000009 1.878250 4.667960 -21.957600 -22.291500 -0.000108 -0.000004 -0.089629 5.308650 -0.173042 -2.192480 -6.469440 -0.000000 -175.414000 1.716310 -4.777830 39.081100 -0.000007 -0.000012 0.265573 -0.620406 23.174500 40.985400 -0.000006 -0.000013 2.142570 7.879870 -72.632200 11.754300 -0.000000 0.000003 0.000489 0.158943 -10.130600 -2.192510 6.469440 -0.000001 -173.463000 7.587200 -178.877000 -39.081100 -0.002282 -0.040193 0.060131 -0.235406 13.564900 -40.985400 0.000008 0.000006 1.660010 1.516910 -69.274100 -11.754300 -0.000006 -0.000006 -0.011301 0.280785 -5.163090
0.000000 0.000000 0.000000 0.000000 0.000000 -0.000000 -1.151330 92.699900 -1.570080 86.102700 1.143030 1.626090 15.735700 0.000005 -0.000001 83.825800 87.835600 -81.515000 8.984550 -0.406207 -0.000000 -3.444260 -0.691250 4.602040 16.377300 -0.000001 -0.000001 4.203740 3.372040 0.351490 6.456720 -0.000001 -0.000000 3.136640 4.607000 -5.888500 12.994200 -0.242716 4.980390 -92.896500 8.772460 -71.646300 5.348090 -0.000007 -0.000001 -72.912900 27.456200 1.902860 24.328600 0.000019 0.000005 13.237600 28.014200 -26.603600 22.291600 -0.000001 0.000005 -4.449380 5.051450 6.205390 12.994500 -0.242716 -4.980390 88.934500 3.514800 -73.124600 -5.348130 -0.000001 -0.000004 -72.127000 23.418000 0.419627 -24.328900 0.000322 -0.000009 2.469750 5.928640 -22.671600 -22.291500 -0.000108 -0.000004 -2.080430 5.302210 0.013277 -2.192480 -6.469440 -0.000000 -175.382000 1.848710 -4.834040 39.081100 -0.000007 -0.000012 0.262737 -0.613554 23.182200 40.985400 -0.000006 -0.000013 2.124990 7.944510 -72.569700 11.754300 -0.000000 0.000003 0.000528 0.158201 -10.160700 -2.192510 6.469440 -0.000001 -173.437000 7.652120 -178.902000 -39.081100 -0.002282 -0.040193 0.059810 -0.234265 13.554300 -40.985400 0.000008 0.000006 1.631690 1.474700 -69.238800 -11.754300 -0.000006 -0.000006 -0.011132 0.279580 -5.212390
0.000000 0.000000 0.000000 0.000000 0.000000 -0.000000 -1.160100 92.708000 -1.606110 86.092900 1.209530 1.573770 15.735700 0.000005 -0.000001 83.329300 87.813200 -80.993500 8.984550 -0.406207 -0.000000 -3.402890 -0.735302 4.651050 16.377300 -0.000001 -0.000001 3.922310 3.223620 0.601489 6.456720 -0.000001 -0.000000 2.743840 4.533520 -5.608470 12.994200 -0.242716 4.980390 -92.889100 8.748320 -71.643400 5.348090 -0.000007 -0.000001 -73.004600 27.447700 1.931490 24.328600 0.000019 0.000005 13.247200 28.001400 -26.630300 22.291600 -0.000001 0.000005 -4.418090 5.052730 6.176950 12.994500 -0.242716 -4.980390 88.926400 3.522430 -73.036900 -5.348130 -0.000001 -0.000004 -70.609100 21.242700 0.183443 -24.328900 0.000322 -0.000009 3.029240 6.873710 -23.858900 -22.291500 -0.000108 -0.000004 -4.257180 5.269880 0.914280 -2.192480 -6.469440 -0.000000 -175.374000 1.943730 -4.919020 39.081100 -0.000007 -0.000012 0.263953 -0.616812 23.168100 40.985400 -0.000006 -0.000013 2.103430 7.895130 -72.537100 11.754300 -0.000000 0.000003 0.000442 0.159826 -10.094700 -2.192510 6.469440 -0.000001 -173.414000 7.707960 -178.952000 -39.081100 -0.002282 -0.040193 0.058490 -0.230078 13.481300 -40.985400 0.000008 0.000006 1.672090 1.454790 -69.194000 -11.754300 -0.000006 -0.000006 -0.011312 0.280857 -5.160120
0.000000 0.000000 0.000000 0.000000 0.000000 -0.000000 -1.173740 92.714600 -1.636640 86.082600 1.275150 1.547650 15.735700 0.000005 -0.000001 83.201200 87.781400 -80.836400 8.984550 -0.406207 -0.000000 -3.340190 -0.754084 4.708790 16.377300 -0.000001 -0.000001 3.641150 3.073210 0.843256 6.456720 -0.000001 -0.000000 2.255140 4.455170 -5.239630 12.994200 -0.242716 4.980390 -92.864500 8.692140 -71.680400 5.348090 -0.000007 -0.000001 -73.111600 27.457700 1.955160 24.328600 0.000019 0.000005 13.252500 27.999100 -26.641600 22.291600 -0.000001 0.000005 -4.528910 5.052190 6.188930 12.994500 -0.242716 -4.980390 88.914500 3.528250 -72.886400 -5.348130 -0.000001 -0.000004 -68.874100 17.493400 0.165499 -24.328900 0.000322 -0.000009 3.804730 7.819030 -26.053300 -22.291500 -0.000108 -0.000004 -6.037510 5.209630 2.485270 -2.192480 -6.469440 -0.000000 -175.337000 1.904420 -4.965440 39.081100 -0.000007 -0.000012 0.261069 -0.610637 23.149000 40.985400 -0.000006 -0.000013 2.098130 7.970850 -72.506500 11.754300 -0.000000 0.000003 0.000405 0.160494 -10.067600 -2.192510 6.469440 -0.000001 -173.386000 7.689590 -178.974000 -39.081100 -0.002282 -0.040193 0.057340 -0.226047 13.437100 -40.985400 0.000008 0.000006 1.601430 1.416590 -69.168100 -11.754300 -0.000006 -0.000006 -0.011146 0.279680 -5.208330
0.000000 0.000000 0.000000 0.000000 0.000000 -0.000000 -1.185160 92.718900 -1.688110 86.067400 1.332490 1.485760 15.735700 0.000005 -0.000001 82.821800 87.754200 -80.420600 8.984550 -0.406207 -0.000000 -3.288600 -0.792481 4.780750 16.377300 -0.000001 -0.000001 3.400200 2.882950 1.132930 6.456720 -0.000001 -0.000000 1.603250 4.384390 -4.848790 12.994200 -0.242716 4.980390 -92.869000 8.677280 -71.624600 5.348090 -0.000007 -0.000001 -73.121800 27.515700 1.943160 24.328600 0.000019 0.000005 13.304100 28.062100 -26.686800 22.291600 -0.000001 0.000005 -4.431490 5.054400 6.140080 12.994500 -0.242716 -4.980390 88.915500 3.482450 -72.691100 -5.348130 -0.000001 -0.000004 -67.037400 12.443300 0.317306 -24.328900 0.000322 -0.000009 4.696750 8.421130 -29.297100 -22.291500 -0.000108 -0.000004 -7.078330 5.151350 3.912040 -2.192480 -6.469440 -0.000000 -175.318000 1.951660 -5.092420 39.081100 -0.000007 -0.000012 0.263906 -0.616441 23.176900 40.985400 -0.000006 -0.000013 2.088850 7.975770 -72.487100 11.754300 -0.000000 0.000003 0.000516 0.158432 -10.151300 -2.192510 6.469440 -0.000001 -173.348000 7.690280 -179.098000 -39.081100 -0.002282 -0.040193 0.057313 -0.225577 13.457600 -40.985400 0.000008 0.000006 1.530470 1.341580 -69.109600 -11.754300 -0.000006 -0.000006 -0.011161 0.279789 -5.203860
